<svg version="1.1"
     baseProfile="full"
     xmlns="http://www.w3.org/2000/svg"
     xmlns:xlink="http://www.w3.org/1999/xlink"
     width="200pt"
     height="250pt"
>

<!--     Muting -->
    <text x="31%" y="6%" font-size="2em" text-anchor="middle">x</text>
    <text x="79%" y="6%" font-size="2em" text-anchor="middle">x</text>


<!--    Fret number-->
    <text x="1%" y="18.5%" font-size="2em"  alignment-baseline="central">10</text>

<!--    Horizontal -->
    <line x1="14.6%" y1="10%" x2="95.4%" y2="10%" style="stroke:rgb(0,0,0);stroke-width:5" />
    <line x1="14.6%" y1="27%" x2="95.4%" y2="27%" style="stroke:rgb(0,0,0);stroke-width:2" />
    <line x1="14.6%" y1="44%" x2="95.4%" y2="44%" style="stroke:rgb(0,0,0);stroke-width:2" />
    <line x1="14.6%" y1="61%" x2="95.4%" y2="61%" style="stroke:rgb(0,0,0);stroke-width:2" />
    <line x1="14.6%" y1="78%" x2="95.4%" y2="78%" style="stroke:rgb(0,0,0);stroke-width:2" />
    <line x1="14.6%" y1="95%" x2="95.4%" y2="95%" style="stroke:rgb(0,0,0);stroke-width:2" />

<!--    Vertical -->
    <line x1="15%" y1="10%" x2="15%" y2="95%" style="stroke:rgb(0,0,0);stroke-width:2" />
    <line x1="31%" y1="10%" x2="31%" y2="95%" style="stroke:rgb(0,0,0);stroke-width:2" />
    <line x1="47%" y1="10%" x2="47%" y2="95%" style="stroke:rgb(0,0,0);stroke-width:2" />
    <line x1="63%" y1="10%" x2="63%" y2="95%" style="stroke:rgb(0,0,0);stroke-width:2" />
    <line x1="79%" y1="10%" x2="79%" y2="95%" style="stroke:rgb(0,0,0);stroke-width:2" />
    <line x1="95%" y1="10%" x2="95%" y2="95%" style="stroke:rgb(0,0,0);stroke-width:2" />

<!--     Barre  -->
    <line x1="17%" y1="18.5%" x2="93%" y2="18.5%" style="stroke:rgb(0,0,0);stroke-width:20" stroke-linecap="round"/>

<!--     Dots -->
    <circle cx="47%" cy="69.5%" r="4%"/>

</svg>